<mxfile host="app.diagrams.net" modified="2023-01-18T13:07:48.376Z" agent="5.0 (Windows)" etag="8SxY76wYHlPf49nvPM-G" version="20.8.5" type="github" pages="2">
  <diagram name="ICS Hermes" id="dd472eb7-4b8b-5cd9-a60b-b15522922e76">
    <mxGraphModel dx="1717" dy="925" grid="1" gridSize="10" guides="1" tooltips="1" connect="1" arrows="1" fold="1" page="1" pageScale="1" pageWidth="1100" pageHeight="850" background="none" math="0" shadow="0">
      <root>
        <mxCell id="0" />
        <mxCell id="1" parent="0" />
        <mxCell id="7mqCqa5LbuB4b-R1EXME-1" value="&lt;div style=&quot;font-size: 15px;&quot;&gt;&lt;font style=&quot;font-size: 15px;&quot; color=&quot;#F01818&quot;&gt;Complejidad&lt;/font&gt;&lt;/div&gt;&lt;div style=&quot;font-size: 15px;&quot;&gt;&lt;font style=&quot;font-size: 15px;&quot; color=&quot;#F01818&quot;&gt;&lt;br&gt;&lt;/font&gt;&lt;/div&gt;" style="endArrow=classic;html=1;rounded=0;fillColor=#f8cecc;strokeColor=#b85450;" parent="1" edge="1">
          <mxGeometry x="0.0303" width="50" height="50" relative="1" as="geometry">
            <mxPoint x="48" y="760" as="sourcePoint" />
            <mxPoint x="48" y="20" as="targetPoint" />
            <Array as="points">
              <mxPoint x="48" y="430" />
            </Array>
            <mxPoint as="offset" />
          </mxGeometry>
        </mxCell>
        <mxCell id="7mqCqa5LbuB4b-R1EXME-2" value="&lt;font style=&quot;font-size: 18px;&quot; color=&quot;#2B2C2E&quot;&gt;TIEMPO&lt;/font&gt;" style="endArrow=classic;html=1;rounded=0;fillColor=#dae8fc;strokeColor=#6c8ebf;" parent="1" edge="1">
          <mxGeometry width="50" height="50" relative="1" as="geometry">
            <mxPoint x="48" y="760" as="sourcePoint" />
            <mxPoint x="1018" y="760" as="targetPoint" />
          </mxGeometry>
        </mxCell>
        <mxCell id="7mqCqa5LbuB4b-R1EXME-5" value="" style="edgeStyle=orthogonalEdgeStyle;rounded=0;orthogonalLoop=1;jettySize=auto;html=1;fontSize=18;fontColor=#000000;" parent="1" source="7mqCqa5LbuB4b-R1EXME-3" target="7mqCqa5LbuB4b-R1EXME-4" edge="1">
          <mxGeometry relative="1" as="geometry" />
        </mxCell>
        <mxCell id="7mqCqa5LbuB4b-R1EXME-7" value="" style="edgeStyle=orthogonalEdgeStyle;rounded=0;orthogonalLoop=1;jettySize=auto;html=1;fontSize=18;fontColor=#0F0F0F;" parent="1" source="7mqCqa5LbuB4b-R1EXME-3" target="7mqCqa5LbuB4b-R1EXME-6" edge="1">
          <mxGeometry relative="1" as="geometry" />
        </mxCell>
        <mxCell id="7mqCqa5LbuB4b-R1EXME-3" value="&lt;div style=&quot;font-size: 13px;&quot;&gt;&lt;font style=&quot;font-size: 13px;&quot; color=&quot;#000000&quot;&gt;OPV 1&lt;/font&gt;&lt;/div&gt;&lt;div style=&quot;font-size: 13px;&quot;&gt;&lt;font style=&quot;font-size: 13px;&quot; color=&quot;#000000&quot;&gt;COL&lt;br&gt;&lt;/font&gt;&lt;/div&gt;" style="ellipse;whiteSpace=wrap;html=1;aspect=fixed;fillColor=#d5e8d4;strokeColor=#82b366;" parent="1" vertex="1">
          <mxGeometry x="88" y="640" width="80" height="80" as="geometry" />
        </mxCell>
        <mxCell id="7mqCqa5LbuB4b-R1EXME-13" value="" style="edgeStyle=orthogonalEdgeStyle;rounded=0;orthogonalLoop=1;jettySize=auto;html=1;fontSize=10;fontColor=#0A0A0A;" parent="1" target="7mqCqa5LbuB4b-R1EXME-12" edge="1">
          <mxGeometry relative="1" as="geometry">
            <Array as="points">
              <mxPoint x="299" y="520" />
              <mxPoint x="469" y="520" />
            </Array>
            <mxPoint x="299" y="540" as="sourcePoint" />
          </mxGeometry>
        </mxCell>
        <mxCell id="7mqCqa5LbuB4b-R1EXME-24" value="" style="edgeStyle=orthogonalEdgeStyle;rounded=0;orthogonalLoop=1;jettySize=auto;html=1;fontSize=16;fontColor=#000000;" parent="1" source="7mqCqa5LbuB4b-R1EXME-4" target="7mqCqa5LbuB4b-R1EXME-23" edge="1">
          <mxGeometry relative="1" as="geometry" />
        </mxCell>
        <mxCell id="7mqCqa5LbuB4b-R1EXME-4" value="&lt;div style=&quot;font-size: 13px;&quot;&gt;&lt;b&gt;&lt;font style=&quot;font-size: 13px;&quot; color=&quot;#0F0F0F&quot;&gt;&lt;span style=&quot;background-color: transparent;&quot;&gt;OPV 2&lt;/span&gt;&lt;/font&gt;&lt;/b&gt;&lt;/div&gt;&lt;div style=&quot;font-size: 13px;&quot;&gt;&lt;b&gt;&lt;font style=&quot;font-size: 13px;&quot; color=&quot;#0F0F0F&quot;&gt;&lt;span style=&quot;background-color: transparent;&quot;&gt;COL&lt;/span&gt;&lt;/font&gt;&lt;font style=&quot;font-size: 13px;&quot;&gt;&lt;br&gt;&lt;/font&gt;&lt;/b&gt;&lt;/div&gt;" style="ellipse;whiteSpace=wrap;html=1;fillColor=#d5e8d4;strokeColor=#82b366;" parent="1" vertex="1">
          <mxGeometry x="268" y="540" width="110" height="110" as="geometry" />
        </mxCell>
        <mxCell id="7mqCqa5LbuB4b-R1EXME-9" value="" style="edgeStyle=orthogonalEdgeStyle;rounded=0;orthogonalLoop=1;jettySize=auto;html=1;fontSize=18;fontColor=#030303;" parent="1" source="7mqCqa5LbuB4b-R1EXME-6" target="7mqCqa5LbuB4b-R1EXME-8" edge="1">
          <mxGeometry relative="1" as="geometry" />
        </mxCell>
        <mxCell id="7mqCqa5LbuB4b-R1EXME-11" value="" style="edgeStyle=orthogonalEdgeStyle;rounded=0;orthogonalLoop=1;jettySize=auto;html=1;fontSize=10;fontColor=#0a0a0a;" parent="1" source="7mqCqa5LbuB4b-R1EXME-6" target="7mqCqa5LbuB4b-R1EXME-10" edge="1">
          <mxGeometry relative="1" as="geometry" />
        </mxCell>
        <mxCell id="7mqCqa5LbuB4b-R1EXME-6" value="&lt;b&gt;&lt;font color=&quot;#030303&quot;&gt;ONEMI&lt;/font&gt;&lt;/b&gt;" style="ellipse;whiteSpace=wrap;html=1;fillColor=#dae8fc;strokeColor=#6c8ebf;gradientColor=#7ea6e0;" parent="1" vertex="1">
          <mxGeometry x="68" y="530" width="70" height="70" as="geometry" />
        </mxCell>
        <mxCell id="7mqCqa5LbuB4b-R1EXME-8" value="&lt;div style=&quot;font-size: 10px;&quot; align=&quot;left&quot;&gt;&lt;font style=&quot;font-size: 10px;&quot; color=&quot;#0a0a0a&quot;&gt;- Telefonía Análoga&lt;/font&gt;&lt;/div&gt;&lt;div style=&quot;font-size: 10px;&quot; align=&quot;left&quot;&gt;&lt;font style=&quot;font-size: 10px;&quot; color=&quot;#0a0a0a&quot;&gt;- Grabaciones&lt;/font&gt;&lt;/div&gt;&lt;div style=&quot;font-size: 10px;&quot; align=&quot;left&quot;&gt;&lt;font style=&quot;font-size: 10px;&quot; color=&quot;#0a0a0a&quot;&gt;- HMI&lt;/font&gt;&lt;font style=&quot;font-size: 10px;&quot; color=&quot;#0a0a0a&quot;&gt;&lt;br&gt;&lt;/font&gt;&lt;/div&gt;" style="shape=parallelogram;perimeter=parallelogramPerimeter;whiteSpace=wrap;html=1;fixedSize=1;fillColor=#dae8fc;strokeColor=#6c8ebf;gradientColor=#7ea6e0;" parent="1" vertex="1">
          <mxGeometry x="58" y="450" width="120" height="60" as="geometry" />
        </mxCell>
        <mxCell id="7mqCqa5LbuB4b-R1EXME-10" value="&lt;font color=&quot;#0A0A0A&quot;&gt;ICS Linux&lt;/font&gt;" style="whiteSpace=wrap;html=1;fillColor=#dae8fc;strokeColor=#6c8ebf;gradientColor=#7ea6e0;" parent="1" vertex="1">
          <mxGeometry x="198" y="500" width="60" height="30" as="geometry" />
        </mxCell>
        <mxCell id="7mqCqa5LbuB4b-R1EXME-17" value="" style="edgeStyle=orthogonalEdgeStyle;rounded=0;orthogonalLoop=1;jettySize=auto;html=1;fontSize=16;fontColor=#000000;" parent="1" source="7mqCqa5LbuB4b-R1EXME-12" target="7mqCqa5LbuB4b-R1EXME-16" edge="1">
          <mxGeometry relative="1" as="geometry" />
        </mxCell>
        <mxCell id="7mqCqa5LbuB4b-R1EXME-32" value="" style="edgeStyle=orthogonalEdgeStyle;rounded=0;orthogonalLoop=1;jettySize=auto;html=1;fontSize=13;fontColor=#030303;exitX=1;exitY=0.5;exitDx=0;exitDy=0;" parent="1" source="7mqCqa5LbuB4b-R1EXME-12" target="7mqCqa5LbuB4b-R1EXME-29" edge="1">
          <mxGeometry relative="1" as="geometry">
            <Array as="points">
              <mxPoint x="574" y="369" />
              <mxPoint x="574" y="219" />
            </Array>
          </mxGeometry>
        </mxCell>
        <mxCell id="7mqCqa5LbuB4b-R1EXME-34" style="edgeStyle=orthogonalEdgeStyle;rounded=0;orthogonalLoop=1;jettySize=auto;html=1;fontSize=13;fontColor=#030303;entryX=-0.015;entryY=0.461;entryDx=0;entryDy=0;entryPerimeter=0;" parent="1" source="7mqCqa5LbuB4b-R1EXME-12" target="7mqCqa5LbuB4b-R1EXME-35" edge="1">
          <mxGeometry relative="1" as="geometry">
            <mxPoint x="644" y="439" as="targetPoint" />
            <Array as="points">
              <mxPoint x="574" y="369" />
              <mxPoint x="574" y="400" />
              <mxPoint x="612" y="400" />
            </Array>
          </mxGeometry>
        </mxCell>
        <mxCell id="7mqCqa5LbuB4b-R1EXME-12" value="&lt;div style=&quot;font-size: 16px;&quot;&gt;&lt;b&gt;&lt;font style=&quot;font-size: 16px;&quot; color=&quot;#121212&quot;&gt;ICS OPV 4&lt;/font&gt;&lt;/b&gt;&lt;/div&gt;&lt;div style=&quot;font-size: 16px;&quot;&gt;&lt;b&gt;&lt;font style=&quot;font-size: 16px;&quot; color=&quot;#121212&quot;&gt;ACH&lt;/font&gt;&lt;font style=&quot;font-size: 16px;&quot;&gt;&lt;br&gt;&lt;/font&gt;&lt;/b&gt;&lt;/div&gt;" style="ellipse;whiteSpace=wrap;html=1;fillColor=#fff2cc;strokeColor=#d6b656;gradientColor=#ffd966;" parent="1" vertex="1">
          <mxGeometry x="394" y="309" width="130" height="120" as="geometry" />
        </mxCell>
        <mxCell id="7mqCqa5LbuB4b-R1EXME-21" value="" style="edgeStyle=orthogonalEdgeStyle;rounded=0;orthogonalLoop=1;jettySize=auto;html=1;fontSize=16;fontColor=#0d0d0d;" parent="1" source="7mqCqa5LbuB4b-R1EXME-16" target="7mqCqa5LbuB4b-R1EXME-20" edge="1">
          <mxGeometry relative="1" as="geometry" />
        </mxCell>
        <mxCell id="7mqCqa5LbuB4b-R1EXME-16" value="&lt;font color=&quot;#0A0A0A&quot;&gt;&lt;b&gt;ICS&lt;/b&gt;&lt;/font&gt; &lt;b&gt;&lt;font color=&quot;#0d0d0d&quot;&gt;EMGA&lt;/font&gt;&lt;/b&gt;" style="ellipse;whiteSpace=wrap;html=1;fillColor=#b0e3e6;strokeColor=#0e8088;" parent="1" vertex="1">
          <mxGeometry x="416.5" y="149" width="85" height="80" as="geometry" />
        </mxCell>
        <mxCell id="7mqCqa5LbuB4b-R1EXME-20" value="&lt;div align=&quot;center&quot;&gt;&lt;font color=&quot;#000000&quot;&gt;- Funcional 100% SIP&lt;/font&gt;&lt;/div&gt;" style="rounded=1;whiteSpace=wrap;html=1;fillColor=#b0e3e6;strokeColor=#0e8088;align=center;" parent="1" vertex="1">
          <mxGeometry x="407" y="49" width="105" height="60" as="geometry" />
        </mxCell>
        <mxCell id="7mqCqa5LbuB4b-R1EXME-27" value="" style="edgeStyle=orthogonalEdgeStyle;rounded=0;orthogonalLoop=1;jettySize=auto;html=1;fontSize=13;fontColor=#030303;" parent="1" source="7mqCqa5LbuB4b-R1EXME-23" target="7mqCqa5LbuB4b-R1EXME-26" edge="1">
          <mxGeometry relative="1" as="geometry">
            <Array as="points">
              <mxPoint x="528" y="650" />
              <mxPoint x="598" y="650" />
            </Array>
          </mxGeometry>
        </mxCell>
        <mxCell id="XgFDl2Q0dGDpwdbtG6Ab-21" value="" style="edgeStyle=orthogonalEdgeStyle;rounded=0;orthogonalLoop=1;jettySize=auto;html=1;fontSize=19;fontColor=#080808;" edge="1" parent="1" source="7mqCqa5LbuB4b-R1EXME-23" target="XgFDl2Q0dGDpwdbtG6Ab-20">
          <mxGeometry relative="1" as="geometry" />
        </mxCell>
        <mxCell id="7mqCqa5LbuB4b-R1EXME-23" value="&lt;div style=&quot;font-size: 13px;&quot;&gt;&lt;b&gt;&lt;font style=&quot;font-size: 13px;&quot; color=&quot;#030303&quot;&gt;OPV 3&lt;/font&gt;&lt;/b&gt;&lt;/div&gt;&lt;div style=&quot;font-size: 13px;&quot;&gt;&lt;b&gt;&lt;font style=&quot;font-size: 13px;&quot; color=&quot;#030303&quot;&gt;COL&lt;br&gt;&lt;/font&gt;&lt;/b&gt;&lt;/div&gt;" style="ellipse;whiteSpace=wrap;html=1;fillColor=#d5e8d4;strokeColor=#82b366;" parent="1" vertex="1">
          <mxGeometry x="478" y="547" width="100" height="95" as="geometry" />
        </mxCell>
        <mxCell id="7mqCqa5LbuB4b-R1EXME-26" value="&lt;font color=&quot;#000000&quot;&gt;- IRIDIUM&lt;/font&gt;" style="rounded=1;whiteSpace=wrap;html=1;fillColor=#d5e8d4;strokeColor=#82b366;" parent="1" vertex="1">
          <mxGeometry x="548" y="680" width="110" height="30" as="geometry" />
        </mxCell>
        <mxCell id="7mqCqa5LbuB4b-R1EXME-41" style="edgeStyle=orthogonalEdgeStyle;rounded=0;orthogonalLoop=1;jettySize=auto;html=1;entryX=0;entryY=0.5;entryDx=0;entryDy=0;fontSize=13;fontColor=#050505;" parent="1" source="7mqCqa5LbuB4b-R1EXME-29" target="7mqCqa5LbuB4b-R1EXME-40" edge="1">
          <mxGeometry relative="1" as="geometry">
            <Array as="points">
              <mxPoint x="774" y="219" />
              <mxPoint x="774" y="319" />
            </Array>
          </mxGeometry>
        </mxCell>
        <mxCell id="XgFDl2Q0dGDpwdbtG6Ab-18" style="edgeStyle=orthogonalEdgeStyle;rounded=0;orthogonalLoop=1;jettySize=auto;html=1;entryX=0;entryY=0.5;entryDx=0;entryDy=0;fontSize=19;fontColor=#080808;" edge="1" parent="1" source="7mqCqa5LbuB4b-R1EXME-29" target="XgFDl2Q0dGDpwdbtG6Ab-13">
          <mxGeometry relative="1" as="geometry">
            <Array as="points">
              <mxPoint x="774" y="220" />
              <mxPoint x="774" y="495" />
            </Array>
          </mxGeometry>
        </mxCell>
        <mxCell id="7mqCqa5LbuB4b-R1EXME-29" value="&lt;div style=&quot;font-size: 13px;&quot;&gt;&lt;b&gt;&lt;font style=&quot;font-size: 13px;&quot; color=&quot;#030303&quot;&gt;ICS ANTARTICA &lt;br&gt;&lt;/font&gt;&lt;/b&gt;&lt;/div&gt;&lt;div style=&quot;font-size: 13px;&quot;&gt;&lt;b&gt;&lt;font style=&quot;font-size: 13px;&quot; color=&quot;#030303&quot;&gt;ACH&lt;/font&gt;&lt;/b&gt;&lt;br&gt;&lt;/div&gt;" style="ellipse;whiteSpace=wrap;html=1;fillColor=#fff2cc;strokeColor=#d6b656;gradientColor=#ffd966;" parent="1" vertex="1">
          <mxGeometry x="614" y="159" width="140" height="130" as="geometry" />
        </mxCell>
        <mxCell id="7mqCqa5LbuB4b-R1EXME-42" style="edgeStyle=orthogonalEdgeStyle;rounded=0;orthogonalLoop=1;jettySize=auto;html=1;fontSize=13;fontColor=#050505;" parent="1" source="7mqCqa5LbuB4b-R1EXME-35" edge="1">
          <mxGeometry relative="1" as="geometry">
            <mxPoint x="824" y="319" as="targetPoint" />
            <Array as="points">
              <mxPoint x="774" y="399" />
              <mxPoint x="774" y="319" />
            </Array>
          </mxGeometry>
        </mxCell>
        <mxCell id="7mqCqa5LbuB4b-R1EXME-35" value="&lt;div&gt;&lt;b&gt;&lt;font color=&quot;#000000&quot;&gt;ICS ALDEA&lt;/font&gt;&lt;/b&gt;&lt;/div&gt;&lt;div&gt;&lt;b&gt;&lt;font color=&quot;#000000&quot;&gt;ACH&lt;/font&gt;&lt;br&gt;&lt;/b&gt;&lt;/div&gt;" style="ellipse;whiteSpace=wrap;html=1;fillColor=#fff2cc;strokeColor=#d6b656;gradientColor=#ffd966;" parent="1" vertex="1">
          <mxGeometry x="614" y="350" width="120" height="109" as="geometry" />
        </mxCell>
        <mxCell id="7mqCqa5LbuB4b-R1EXME-36" value="&lt;div align=&quot;left&quot;&gt;&lt;font color=&quot;#0b0b0b&quot;&gt;- SIG.&lt;/font&gt;&lt;/div&gt;&lt;div align=&quot;left&quot;&gt;&lt;font color=&quot;#0b0b0b&quot;&gt;- Telemedicina&lt;/font&gt;&lt;br&gt;&lt;/div&gt;" style="rounded=1;whiteSpace=wrap;html=1;fillColor=#fff2cc;strokeColor=#d6b656;gradientColor=#ffd966;" parent="1" vertex="1">
          <mxGeometry x="574" y="49" width="120" height="60" as="geometry" />
        </mxCell>
        <mxCell id="7mqCqa5LbuB4b-R1EXME-44" value="" style="edgeStyle=orthogonalEdgeStyle;rounded=0;orthogonalLoop=1;jettySize=auto;html=1;fontSize=13;fontColor=#050505;" parent="1" source="7mqCqa5LbuB4b-R1EXME-40" target="7mqCqa5LbuB4b-R1EXME-43" edge="1">
          <mxGeometry relative="1" as="geometry" />
        </mxCell>
        <mxCell id="XgFDl2Q0dGDpwdbtG6Ab-12" value="" style="edgeStyle=orthogonalEdgeStyle;rounded=0;orthogonalLoop=1;jettySize=auto;html=1;fontSize=12;fontColor=#2B2C2E;exitX=1;exitY=0.5;exitDx=0;exitDy=0;" edge="1" parent="1" source="7mqCqa5LbuB4b-R1EXME-40" target="XgFDl2Q0dGDpwdbtG6Ab-11">
          <mxGeometry relative="1" as="geometry" />
        </mxCell>
        <mxCell id="XgFDl2Q0dGDpwdbtG6Ab-15" style="edgeStyle=orthogonalEdgeStyle;rounded=0;orthogonalLoop=1;jettySize=auto;html=1;fontSize=19;fontColor=#080808;" edge="1" parent="1" source="7mqCqa5LbuB4b-R1EXME-40" target="XgFDl2Q0dGDpwdbtG6Ab-14">
          <mxGeometry relative="1" as="geometry" />
        </mxCell>
        <mxCell id="7mqCqa5LbuB4b-R1EXME-40" value="&lt;div style=&quot;font-size: 13px;&quot;&gt;&lt;b&gt;&lt;font style=&quot;font-size: 13px;&quot; color=&quot;#030303&quot;&gt;ICS ESCOTILLON &lt;br&gt;&lt;/font&gt;&lt;/b&gt;&lt;/div&gt;&lt;div style=&quot;font-size: 13px;&quot;&gt;&lt;b&gt;&lt;font style=&quot;font-size: 13px;&quot; color=&quot;#030303&quot;&gt;ACH&lt;/font&gt;&lt;/b&gt;&lt;br&gt;&lt;/div&gt;" style="ellipse;whiteSpace=wrap;html=1;fillColor=#fff2cc;strokeColor=#d6b656;gradientColor=#ffd966;" parent="1" vertex="1">
          <mxGeometry x="824" y="259" width="120" height="120" as="geometry" />
        </mxCell>
        <mxCell id="7mqCqa5LbuB4b-R1EXME-43" value="&lt;div align=&quot;left&quot;&gt;&lt;font color=&quot;#030303&quot;&gt;- Diseño SW (HMI/TRICS)&lt;/font&gt;&lt;/div&gt;&lt;div align=&quot;left&quot;&gt;&lt;font color=&quot;#030303&quot;&gt;- Diseño HW (TRI-TRE)&lt;br&gt;&lt;/font&gt;&lt;/div&gt;" style="rounded=1;whiteSpace=wrap;html=1;fillColor=#fff2cc;strokeColor=#d6b656;gradientColor=#ffd966;" parent="1" vertex="1">
          <mxGeometry x="754" y="109" width="150" height="60" as="geometry" />
        </mxCell>
        <mxCell id="7mqCqa5LbuB4b-R1EXME-46" value="" style="endArrow=none;dashed=1;html=1;dashPattern=1 3;strokeWidth=2;rounded=0;fontSize=13;fontColor=#030303;fillColor=#dae8fc;gradientColor=#7ea6e0;strokeColor=#6c8ebf;" parent="1" edge="1">
          <mxGeometry width="50" height="50" relative="1" as="geometry">
            <mxPoint x="728" y="760" as="sourcePoint" />
            <mxPoint x="728" y="10" as="targetPoint" />
          </mxGeometry>
        </mxCell>
        <mxCell id="XgFDl2Q0dGDpwdbtG6Ab-1" value="&lt;font size=&quot;1&quot;&gt;&lt;b style=&quot;font-size: 19px;&quot;&gt;2023&lt;/b&gt;&lt;/font&gt;" style="text;html=1;strokeColor=none;fillColor=none;align=center;verticalAlign=middle;whiteSpace=wrap;rounded=0;labelBackgroundColor=none;fontSize=13;fontColor=#0A0A0A;" vertex="1" parent="1">
          <mxGeometry x="688" y="770" width="100" height="30" as="geometry" />
        </mxCell>
        <mxCell id="XgFDl2Q0dGDpwdbtG6Ab-4" value="&lt;font style=&quot;font-size: 12px;&quot;&gt;&lt;br&gt;&lt;/font&gt;&lt;div style=&quot;font-size: 12px;&quot; align=&quot;left&quot;&gt;&lt;font style=&quot;font-size: 12px;&quot; color=&quot;#000000&quot;&gt;- Matriz de Audio&lt;/font&gt;&lt;/div&gt;&lt;div style=&quot;font-size: 12px;&quot; align=&quot;left&quot;&gt;&lt;font style=&quot;font-size: 12px;&quot; color=&quot;#000000&quot;&gt;- Video Conferencias&lt;/font&gt;&lt;/div&gt;&lt;div style=&quot;font-size: 12px;&quot; align=&quot;left&quot;&gt;&lt;font style=&quot;font-size: 12px;&quot; color=&quot;#000000&quot;&gt;- Circuito MC&lt;/font&gt;&lt;/div&gt;&lt;div style=&quot;font-size: 12px;&quot; align=&quot;left&quot;&gt;&lt;font style=&quot;font-size: 12px;&quot; color=&quot;#000000&quot;&gt;- SATCOM&lt;/font&gt;&lt;/div&gt;&lt;div style=&quot;font-size: 12px;&quot; align=&quot;left&quot;&gt;&lt;font style=&quot;font-size: 12px;&quot; color=&quot;#000000&quot;&gt;- SATCOM EMCO&lt;/font&gt;&lt;/div&gt;&lt;div style=&quot;font-size: 12px;&quot; align=&quot;left&quot;&gt;&lt;font style=&quot;font-size: 12px;&quot; color=&quot;#000000&quot;&gt;- Sistema Admin.&lt;/font&gt;&lt;/div&gt;&lt;div style=&quot;font-size: 12px;&quot; align=&quot;left&quot;&gt;&lt;font style=&quot;font-size: 12px;&quot; color=&quot;#000000&quot;&gt;- Nodos F.O&lt;/font&gt;&lt;/div&gt;&lt;div style=&quot;font-size: 12px;&quot; align=&quot;left&quot;&gt;&lt;font style=&quot;font-size: 12px;&quot; color=&quot;#000000&quot;&gt;- S.O&lt;/font&gt;&lt;/div&gt;&lt;div style=&quot;font-size: 12px;&quot; align=&quot;left&quot;&gt;&lt;font style=&quot;font-size: 12px;&quot; color=&quot;#000000&quot;&gt;- Diseño HW&lt;/font&gt;&lt;/div&gt;&lt;div style=&quot;font-size: 12px;&quot; align=&quot;left&quot;&gt;&lt;font style=&quot;font-size: 12px;&quot; color=&quot;#000000&quot;&gt;&lt;font style=&quot;font-size: 12px;&quot;&gt;- CCTV&lt;/font&gt;&lt;br&gt;&lt;/font&gt;&lt;/div&gt;&lt;br&gt;" style="shape=callout;whiteSpace=wrap;html=1;perimeter=calloutPerimeter;labelBackgroundColor=none;strokeColor=#d6b656;fontSize=19;position2=1;fillColor=#fff2cc;gradientColor=#ffd966;base=19;size=19;position=0.62;" vertex="1" parent="1">
          <mxGeometry x="254" y="200" width="130" height="179" as="geometry" />
        </mxCell>
        <mxCell id="XgFDl2Q0dGDpwdbtG6Ab-10" value="&lt;div align=&quot;left&quot;&gt;&lt;font color=&quot;#050505&quot;&gt;- DIseño HW&lt;/font&gt;&lt;/div&gt;&lt;div align=&quot;left&quot;&gt;&lt;font color=&quot;#050505&quot;&gt;- Motor TRICS&lt;/font&gt;&lt;/div&gt;&lt;div align=&quot;left&quot;&gt;&lt;font color=&quot;#050505&quot;&gt;- Botonera&lt;/font&gt;&lt;/div&gt;&lt;div align=&quot;left&quot;&gt;&lt;font color=&quot;#050505&quot;&gt;- Aumento Matriz &lt;br&gt;&lt;/font&gt;&lt;/div&gt;&lt;font color=&quot;#050505&quot;&gt;- CICS&lt;/font&gt;" style="text;html=1;strokeColor=none;fillColor=none;align=center;verticalAlign=middle;whiteSpace=wrap;rounded=0;labelBackgroundColor=none;fontSize=12;fontColor=#0A0A0A;" vertex="1" parent="1">
          <mxGeometry x="564" y="490" width="60" height="30" as="geometry" />
        </mxCell>
        <mxCell id="XgFDl2Q0dGDpwdbtG6Ab-11" value="&lt;font style=&quot;font-size: 19px;&quot; color=&quot;#080808&quot;&gt;ICS FF 23&lt;/font&gt;" style="ellipse;whiteSpace=wrap;html=1;fillColor=#fff2cc;strokeColor=#d6b656;gradientColor=#ffd966;" vertex="1" parent="1">
          <mxGeometry x="934" y="61" width="140" height="139" as="geometry" />
        </mxCell>
        <mxCell id="XgFDl2Q0dGDpwdbtG6Ab-13" value="&lt;font style=&quot;font-size: 19px;&quot; color=&quot;#080808&quot;&gt;ICS LM&lt;/font&gt;" style="ellipse;whiteSpace=wrap;html=1;fillColor=#fff2cc;strokeColor=#d6b656;gradientColor=#ffd966;" vertex="1" parent="1">
          <mxGeometry x="824" y="435.5" width="120" height="119" as="geometry" />
        </mxCell>
        <mxCell id="XgFDl2Q0dGDpwdbtG6Ab-14" value="&lt;font style=&quot;font-size: 19px;&quot; color=&quot;#080808&quot;&gt;ICS SS&lt;/font&gt;" style="ellipse;whiteSpace=wrap;html=1;fillColor=#fff2cc;strokeColor=#d6b656;gradientColor=#ffd966;" vertex="1" parent="1">
          <mxGeometry x="1064" y="372" width="110" height="107" as="geometry" />
        </mxCell>
        <mxCell id="XgFDl2Q0dGDpwdbtG6Ab-20" value="&lt;div style=&quot;font-size: 13px;&quot;&gt;&lt;b&gt;&lt;font style=&quot;font-size: 13px;&quot; color=&quot;#030303&quot;&gt;OPV 4&lt;/font&gt;&lt;/b&gt;&lt;/div&gt;&lt;div style=&quot;font-size: 13px;&quot;&gt;&lt;b&gt;&lt;font style=&quot;font-size: 13px;&quot; color=&quot;#030303&quot;&gt;COL&lt;br&gt;&lt;/font&gt;&lt;/b&gt;&lt;/div&gt;" style="ellipse;whiteSpace=wrap;html=1;fillColor=#d5e8d4;strokeColor=#82b366;" vertex="1" parent="1">
          <mxGeometry x="968" y="547.25" width="110" height="95.5" as="geometry" />
        </mxCell>
      </root>
    </mxGraphModel>
  </diagram>
  <diagram id="Y6D6LiJxNvSc9yeLJu5Y" name="ICS SW">
    <mxGraphModel dx="1717" dy="925" grid="1" gridSize="10" guides="1" tooltips="1" connect="1" arrows="1" fold="1" page="1" pageScale="1" pageWidth="1100" pageHeight="850" math="0" shadow="0">
      <root>
        <mxCell id="0" />
        <mxCell id="1" parent="0" />
        <mxCell id="WnH1nkSiGPH3ruKdQB_K-1" value="&lt;div&gt;&lt;font color=&quot;#0D0D0D&quot;&gt;&lt;br&gt;&lt;/font&gt;&lt;/div&gt;&lt;div&gt;&lt;font color=&quot;#0D0D0D&quot;&gt;TRICS&lt;/font&gt;&lt;/div&gt;&lt;div&gt;&lt;font color=&quot;#0D0D0D&quot;&gt;ICS COL&lt;br&gt;&lt;/font&gt;&lt;/div&gt;&lt;div&gt;&lt;br&gt;&lt;/div&gt;" style="ellipse;whiteSpace=wrap;html=1;labelBackgroundColor=none;strokeColor=#6c8ebf;fontSize=19;fillColor=#dae8fc;gradientColor=#7ea6e0;" vertex="1" parent="1">
          <mxGeometry x="10" y="345" width="120" height="80" as="geometry" />
        </mxCell>
        <mxCell id="WnH1nkSiGPH3ruKdQB_K-5" value="&lt;div&gt;&lt;font color=&quot;#0D0D0D&quot;&gt;&lt;br&gt;&lt;/font&gt;&lt;/div&gt;&lt;div&gt;&lt;font color=&quot;#0D0D0D&quot;&gt;&lt;br&gt;&lt;/font&gt;&lt;/div&gt;&lt;div&gt;&lt;font color=&quot;#0D0D0D&quot;&gt;TRI&lt;/font&gt;&lt;/div&gt;&lt;br&gt;&lt;div&gt;&lt;br&gt;&lt;/div&gt;" style="ellipse;whiteSpace=wrap;html=1;labelBackgroundColor=none;strokeColor=#6c8ebf;fontSize=19;fillColor=#dae8fc;gradientColor=#7ea6e0;" vertex="1" parent="1">
          <mxGeometry x="178" y="210" width="120" height="80" as="geometry" />
        </mxCell>
        <mxCell id="WnH1nkSiGPH3ruKdQB_K-6" value="&lt;div&gt;&lt;font color=&quot;#0D0D0D&quot;&gt;&lt;br&gt;&lt;/font&gt;&lt;/div&gt;&lt;div&gt;&lt;font color=&quot;#0D0D0D&quot;&gt;&lt;br&gt;&lt;/font&gt;&lt;/div&gt;&lt;div&gt;&lt;font color=&quot;#0D0D0D&quot;&gt;TRE&lt;/font&gt;&lt;/div&gt;&lt;br&gt;&lt;div&gt;&lt;br&gt;&lt;/div&gt;" style="ellipse;whiteSpace=wrap;html=1;labelBackgroundColor=none;strokeColor=#6c8ebf;fontSize=19;fillColor=#dae8fc;gradientColor=#7ea6e0;" vertex="1" parent="1">
          <mxGeometry x="178" y="370" width="120" height="80" as="geometry" />
        </mxCell>
        <mxCell id="WnH1nkSiGPH3ruKdQB_K-7" value="&lt;font color=&quot;#0F0F0F&quot;&gt;BANASOFT SDK&lt;br&gt;&lt;/font&gt;" style="rounded=1;whiteSpace=wrap;html=1;labelBackgroundColor=none;strokeColor=#6c8ebf;fontSize=19;fillColor=#dae8fc;gradientColor=#7ea6e0;" vertex="1" parent="1">
          <mxGeometry x="40" y="20" width="300" height="60" as="geometry" />
        </mxCell>
        <mxCell id="WnH1nkSiGPH3ruKdQB_K-8" value="&lt;font color=&quot;#0F0F0F&quot;&gt;Banasoft SDK &lt;/font&gt;&lt;font color=&quot;#000000&quot;&gt;/&lt;/font&gt; &lt;font color=&quot;#0F0F0F&quot;&gt;VaxVoIP&lt;br&gt;&lt;/font&gt;" style="rounded=1;whiteSpace=wrap;html=1;labelBackgroundColor=none;strokeColor=#82b366;fontSize=19;fillColor=#d5e8d4;gradientColor=#97d077;" vertex="1" parent="1">
          <mxGeometry x="340" y="20" width="350" height="60" as="geometry" />
        </mxCell>
        <mxCell id="WnH1nkSiGPH3ruKdQB_K-9" value="&lt;font color=&quot;#0F0F0F&quot;&gt;CISC v1.0&lt;br&gt;&lt;/font&gt;" style="rounded=1;whiteSpace=wrap;html=1;labelBackgroundColor=none;strokeColor=#d6b656;fontSize=19;fillColor=#fff2cc;gradientColor=#ffd966;" vertex="1" parent="1">
          <mxGeometry x="40" y="670" width="220" height="60" as="geometry" />
        </mxCell>
        <mxCell id="WnH1nkSiGPH3ruKdQB_K-10" value="&lt;font color=&quot;#0F0F0F&quot;&gt;CISC v3.0&lt;br&gt;&lt;/font&gt;" style="rounded=1;whiteSpace=wrap;html=1;labelBackgroundColor=none;strokeColor=#d6b656;fontSize=19;fillColor=#fff2cc;gradientColor=#ffd966;" vertex="1" parent="1">
          <mxGeometry x="480" y="670" width="210" height="60" as="geometry" />
        </mxCell>
        <mxCell id="WnH1nkSiGPH3ruKdQB_K-12" value="&lt;font color=&quot;#0F0F0F&quot;&gt;CISC v2.0&lt;br&gt;&lt;/font&gt;" style="rounded=1;whiteSpace=wrap;html=1;labelBackgroundColor=none;strokeColor=#d6b656;fontSize=19;fillColor=#fff2cc;gradientColor=#ffd966;" vertex="1" parent="1">
          <mxGeometry x="260" y="670" width="220" height="60" as="geometry" />
        </mxCell>
        <mxCell id="WnH1nkSiGPH3ruKdQB_K-17" value="&lt;div&gt;&lt;font color=&quot;#0D0D0D&quot;&gt;TIR&lt;/font&gt;&lt;/div&gt;" style="ellipse;whiteSpace=wrap;html=1;labelBackgroundColor=none;strokeColor=#6c8ebf;fontSize=19;fillColor=#dae8fc;gradientColor=#7ea6e0;" vertex="1" parent="1">
          <mxGeometry x="178" y="510" width="120" height="80" as="geometry" />
        </mxCell>
        <mxCell id="WnH1nkSiGPH3ruKdQB_K-23" style="edgeStyle=orthogonalEdgeStyle;rounded=0;orthogonalLoop=1;jettySize=auto;html=1;entryX=0;entryY=0.5;entryDx=0;entryDy=0;fontSize=19;fontColor=#000000;" edge="1" parent="1" source="WnH1nkSiGPH3ruKdQB_K-18" target="WnH1nkSiGPH3ruKdQB_K-22">
          <mxGeometry relative="1" as="geometry" />
        </mxCell>
        <mxCell id="WnH1nkSiGPH3ruKdQB_K-25" style="edgeStyle=orthogonalEdgeStyle;rounded=0;orthogonalLoop=1;jettySize=auto;html=1;entryX=0.039;entryY=0.677;entryDx=0;entryDy=0;entryPerimeter=0;fontSize=19;fontColor=#000000;" edge="1" parent="1" source="WnH1nkSiGPH3ruKdQB_K-18" target="WnH1nkSiGPH3ruKdQB_K-21">
          <mxGeometry relative="1" as="geometry" />
        </mxCell>
        <mxCell id="WnH1nkSiGPH3ruKdQB_K-18" value="&lt;div&gt;&lt;font color=&quot;#0D0D0D&quot;&gt;&lt;br&gt;&lt;/font&gt;&lt;/div&gt;&lt;div&gt;&lt;font color=&quot;#0D0D0D&quot;&gt;&lt;br&gt;&lt;/font&gt;&lt;/div&gt;&lt;div&gt;&lt;font color=&quot;#0D0D0D&quot;&gt;TRI&lt;/font&gt;&lt;/div&gt;&lt;br&gt;&lt;div&gt;&lt;br&gt;&lt;/div&gt;" style="ellipse;whiteSpace=wrap;html=1;labelBackgroundColor=none;strokeColor=#82b366;fontSize=19;fillColor=#d5e8d4;gradientColor=#97d077;" vertex="1" parent="1">
          <mxGeometry x="330" y="210" width="120" height="80" as="geometry" />
        </mxCell>
        <mxCell id="WnH1nkSiGPH3ruKdQB_K-24" style="edgeStyle=orthogonalEdgeStyle;rounded=0;orthogonalLoop=1;jettySize=auto;html=1;entryX=0;entryY=0.5;entryDx=0;entryDy=0;fontSize=19;fontColor=#000000;" edge="1" parent="1" source="WnH1nkSiGPH3ruKdQB_K-19" target="WnH1nkSiGPH3ruKdQB_K-22">
          <mxGeometry relative="1" as="geometry" />
        </mxCell>
        <mxCell id="WnH1nkSiGPH3ruKdQB_K-19" value="&lt;div&gt;&lt;font color=&quot;#0D0D0D&quot;&gt;&lt;br&gt;&lt;/font&gt;&lt;/div&gt;&lt;div&gt;&lt;font color=&quot;#0D0D0D&quot;&gt;&lt;br&gt;&lt;/font&gt;&lt;/div&gt;&lt;div&gt;&lt;font color=&quot;#0D0D0D&quot;&gt;TRE&lt;/font&gt;&lt;/div&gt;&lt;br&gt;&lt;div&gt;&lt;br&gt;&lt;/div&gt;" style="ellipse;whiteSpace=wrap;html=1;labelBackgroundColor=none;strokeColor=#82b366;fontSize=19;fillColor=#d5e8d4;gradientColor=#97d077;" vertex="1" parent="1">
          <mxGeometry x="330" y="370" width="120" height="80" as="geometry" />
        </mxCell>
        <mxCell id="WnH1nkSiGPH3ruKdQB_K-20" value="&lt;div&gt;&lt;font color=&quot;#0D0D0D&quot;&gt;TIR&lt;/font&gt;&lt;/div&gt;" style="ellipse;whiteSpace=wrap;html=1;labelBackgroundColor=none;strokeColor=#82b366;fontSize=19;fillColor=#d5e8d4;gradientColor=#97d077;" vertex="1" parent="1">
          <mxGeometry x="330" y="510" width="120" height="80" as="geometry" />
        </mxCell>
        <mxCell id="WnH1nkSiGPH3ruKdQB_K-21" value="&lt;div&gt;&lt;font color=&quot;#0D0D0D&quot;&gt;&lt;br&gt;&lt;/font&gt;&lt;/div&gt;&lt;div&gt;&lt;font color=&quot;#0D0D0D&quot;&gt;&lt;br&gt;&lt;/font&gt;&lt;/div&gt;&lt;div&gt;&lt;font color=&quot;#0D0D0D&quot;&gt;TRI-C&lt;/font&gt;&lt;/div&gt;&lt;br&gt;&lt;div&gt;&lt;br&gt;&lt;/div&gt;" style="ellipse;whiteSpace=wrap;html=1;labelBackgroundColor=none;strokeColor=#82b366;fontSize=19;fillColor=#d5e8d4;gradientColor=#97d077;" vertex="1" parent="1">
          <mxGeometry x="519" y="130" width="120" height="80" as="geometry" />
        </mxCell>
        <mxCell id="WnH1nkSiGPH3ruKdQB_K-22" value="&lt;div&gt;&lt;font color=&quot;#0D0D0D&quot;&gt;&lt;br&gt;&lt;/font&gt;&lt;/div&gt;&lt;div&gt;&lt;font color=&quot;#0D0D0D&quot;&gt;&lt;br&gt;&lt;/font&gt;&lt;/div&gt;&lt;div&gt;&lt;font color=&quot;#0D0D0D&quot;&gt;TRI-D&lt;/font&gt;&lt;/div&gt;&lt;br&gt;&lt;div&gt;&lt;br&gt;&lt;/div&gt;" style="ellipse;whiteSpace=wrap;html=1;labelBackgroundColor=none;strokeColor=#82b366;fontSize=19;fillColor=#d5e8d4;gradientColor=#97d077;" vertex="1" parent="1">
          <mxGeometry x="520" y="284" width="120" height="80" as="geometry" />
        </mxCell>
        <mxCell id="WnH1nkSiGPH3ruKdQB_K-26" value="&lt;div&gt;&lt;font color=&quot;#0D0D0D&quot;&gt;TIR 2.0&lt;br&gt;&lt;/font&gt;&lt;/div&gt;" style="ellipse;whiteSpace=wrap;html=1;labelBackgroundColor=none;strokeColor=#82b366;fontSize=19;fillColor=#d5e8d4;gradientColor=#97d077;" vertex="1" parent="1">
          <mxGeometry x="519" y="510" width="120" height="80" as="geometry" />
        </mxCell>
        <mxCell id="WnH1nkSiGPH3ruKdQB_K-27" value="ICS ALDEA" style="text;html=1;strokeColor=none;fillColor=none;align=center;verticalAlign=middle;whiteSpace=wrap;rounded=0;labelBackgroundColor=#ffffff;fontSize=19;fontColor=#000000;" vertex="1" parent="1">
          <mxGeometry x="500" y="750" width="160" height="30" as="geometry" />
        </mxCell>
        <mxCell id="WnH1nkSiGPH3ruKdQB_K-28" value="" style="endArrow=none;dashed=1;html=1;dashPattern=1 3;strokeWidth=2;rounded=0;fontSize=19;fontColor=#000000;fillColor=#f8cecc;gradientColor=#ea6b66;strokeColor=#b85450;" edge="1" parent="1">
          <mxGeometry width="50" height="50" relative="1" as="geometry">
            <mxPoint x="480" y="800" as="sourcePoint" />
            <mxPoint x="480" y="100" as="targetPoint" />
          </mxGeometry>
        </mxCell>
        <mxCell id="WnH1nkSiGPH3ruKdQB_K-29" value="&lt;font color=&quot;#0F0F0F&quot;&gt;Banasoft SDK &lt;/font&gt;&lt;font color=&quot;#000000&quot;&gt;/&lt;/font&gt; &lt;font color=&quot;#0F0F0F&quot;&gt;VaxVoIP&lt;br&gt;&lt;/font&gt;" style="rounded=1;whiteSpace=wrap;html=1;labelBackgroundColor=none;strokeColor=#C73500;fontSize=19;fillColor=#fa6800;fontColor=#000000;" vertex="1" parent="1">
          <mxGeometry x="690" y="20" width="350" height="60" as="geometry" />
        </mxCell>
      </root>
    </mxGraphModel>
  </diagram>
</mxfile>
